<svg version="1.1" id="Layer_1" xmlns="http://www.w3.org/2000/svg" xmlns:xlink="http://www.w3.org/1999/xlink" x="0px" y="0px"
	 width="100%" viewBox="0 0 1000 1000" enable-background="new 0 0 1000 1000" xml:space="preserve">
<path fill="#FFFFFD" opacity="1.000000" stroke="none" 
	d="
M909.000000,1001.000000 
	C606.000000,1001.000000 303.500000,1001.000000 1.000000,1001.000000 
	C1.000000,667.666687 1.000000,334.333344 1.000000,1.000000 
	C334.333344,1.000000 667.666687,1.000000 1001.000000,1.000000 
	C1001.000000,334.333344 1001.000000,667.666687 1001.000000,1001.000000 
	C970.500000,1001.000000 940.000000,1001.000000 909.000000,1001.000000 
M690.387817,507.344025 
	C680.746826,536.911621 677.714783,590.645935 684.841370,602.103882 
	C687.238098,586.870178 689.675110,571.380493 692.894531,555.657288 
	C698.591553,555.595825 704.288635,555.534363 709.835632,556.254089 
	C708.348816,560.789978 706.862061,565.325928 705.245056,570.259033 
	C709.648376,571.789368 713.472717,573.429016 717.456177,574.443848 
	C728.730103,577.316040 739.938477,580.864502 751.407349,582.473450 
	C784.763550,587.152893 812.354492,576.447083 832.059021,548.672974 
	C840.986145,536.089905 848.784119,522.640259 856.320740,509.151459 
	C867.706116,488.774292 878.463623,468.087128 896.246460,452.188934 
	C902.009766,447.036469 901.199707,443.929260 893.516418,441.506226 
	C852.488098,428.567291 811.081604,424.714508 769.118347,436.949249 
	C744.678406,444.074921 723.704346,456.562653 707.010620,477.071777 
	C703.248596,477.288086 699.480103,477.747589 695.726562,477.647186 
	C692.467163,477.559998 691.421753,478.704102 691.413940,481.938202 
	C691.393982,490.216949 691.037781,498.494904 690.387817,507.344025 
M474.668091,514.500000 
	C474.668091,527.938599 474.668091,541.377197 474.668091,555.001221 
	C481.922272,555.001221 488.162231,555.001221 495.115906,555.001221 
	C495.115906,540.701477 495.115906,526.802979 495.115906,512.482788 
	C498.471558,512.482788 501.114838,512.508057 503.757507,512.478394 
	C515.481812,512.346741 518.736938,514.612732 522.387573,525.655945 
	C525.312683,534.504456 528.066956,543.411255 531.139648,552.207397 
	C531.619690,553.581604 533.379456,555.458496 534.569641,555.474609 
	C540.471008,555.554993 546.379883,555.089233 552.913513,554.786865 
	C549.947083,545.915955 547.220947,537.728760 544.471008,529.549561 
	C541.353333,520.276794 538.738403,510.688843 528.531494,505.296356 
	C531.090820,504.012085 532.884216,503.197662 534.596008,502.237640 
	C540.426086,498.967957 545.158325,494.739990 547.090088,488.005066 
	C552.207642,470.163086 541.616089,454.472961 522.573669,453.218903 
	C507.305054,452.213348 491.941864,452.639771 476.620300,452.462250 
	C476.171448,452.457031 475.718506,452.806427 474.670898,453.233887 
	C474.670898,473.202850 474.670898,493.351379 474.668091,514.500000 
M249.618042,543.772705 
	C251.419800,545.193970 253.221558,546.615234 255.837021,548.678284 
	C252.741959,549.941528 251.091095,550.592041 249.458450,551.285461 
	C240.157410,555.235657 236.728165,563.659302 240.640793,573.047424 
	C242.877609,578.414490 246.863983,582.227539 252.212997,584.156067 
	C267.024780,589.496338 281.988312,589.665222 296.585144,583.575867 
	C306.861084,579.289124 311.724426,569.510193 309.891968,558.762329 
	C308.318115,549.531311 301.664795,544.479431 289.772186,543.628357 
	C281.631042,543.045837 273.478668,542.622131 265.334869,542.074219 
	C260.967285,541.780457 258.489441,539.407349 258.679749,534.989685 
	C258.863647,530.719910 261.752319,528.916321 265.699860,528.755127 
	C269.690613,528.591980 273.709534,528.907776 277.684326,528.601440 
	C293.721405,527.365173 304.432373,514.743286 301.775604,499.402466 
	C300.947723,494.622009 297.729706,490.255493 295.488708,485.448181 
	C301.607086,482.233887 305.537476,476.907990 306.374847,469.141327 
	C304.686951,468.664032 303.215942,468.390717 301.858734,467.837860 
	C297.583679,466.096375 295.588226,467.413696 294.739960,472.026855 
	C294.198639,474.970764 292.338348,477.672150 291.062836,480.496887 
	C272.202911,471.307129 255.716522,478.722900 249.959015,488.020233 
	C242.634369,499.848236 245.315018,511.718903 258.737823,524.658997 
	C246.809631,531.570312 245.375259,534.351440 249.618042,543.772705 
M607.683533,502.769440 
	C605.210999,504.264954 602.912659,506.342865 600.232544,507.144714 
	C592.760193,509.380249 584.991211,510.668915 577.599548,513.117004 
	C569.836731,515.688110 564.670654,521.046753 563.531006,529.635498 
	C562.054504,540.762634 566.906860,550.317139 576.234619,554.324341 
	C587.578186,559.197510 600.065979,556.479980 606.929993,547.670532 
	C607.689026,546.696289 608.579590,545.824402 609.834839,544.433350 
	C614.704712,555.932007 623.690430,556.958496 633.774719,554.821960 
	C635.079529,554.545471 636.994202,552.770752 637.024292,551.647217 
	C637.128418,547.749939 636.525818,543.833740 636.199707,540.013855 
	C627.468628,539.816528 627.126831,539.412720 627.099976,530.971985 
	C627.065552,520.150635 627.249329,509.318512 626.826233,498.511078 
	C626.372009,486.909271 619.875549,479.606171 608.692200,477.221558 
	C599.153259,475.187561 589.670105,475.646851 580.788330,479.604462 
	C575.190979,482.098633 570.166565,485.878723 564.614807,489.245941 
	C568.197998,494.447906 570.974182,498.478302 573.885010,502.704163 
	C575.820374,501.092255 577.206299,499.923431 578.607666,498.773438 
	C584.662292,493.804962 591.543884,491.354065 599.421448,491.999908 
	C606.354919,492.568268 608.356140,494.939972 607.683533,502.769440 
M182.351242,467.237030 
	C177.733017,457.913239 169.699219,453.536133 159.813889,453.083282 
	C146.016968,452.451263 132.183197,452.617767 118.364830,452.478699 
	C117.754829,452.472565 117.141205,452.825470 116.734222,452.948944 
	C116.734222,487.105255 116.734222,521.021179 116.734222,555.033142 
	C120.745796,555.033142 124.348885,555.033142 128.572342,555.033142 
	C128.572342,539.691711 128.572342,524.600891 128.572342,509.331635 
	C135.808655,509.331635 142.425064,509.274567 149.040115,509.345825 
	C157.649384,509.438568 162.993256,513.911743 165.607483,521.944946 
	C168.182190,529.856689 170.794144,537.756348 173.356781,545.671936 
	C176.590805,555.661377 176.576614,555.668762 187.155304,554.923218 
	C187.451447,554.902344 187.732681,554.670105 188.649094,554.245056 
	C185.061340,543.298767 181.817200,532.141907 177.663925,521.334473 
	C175.946350,516.865051 172.394897,513.057983 169.434982,509.132477 
	C168.462753,507.843109 166.726730,507.129669 165.116058,505.995148 
	C169.034088,503.920746 172.496445,502.558807 175.422211,500.451721 
	C184.860687,493.654419 187.540695,481.148682 182.351242,467.237030 
M326.984619,488.500000 
	C326.984619,510.580994 326.984619,532.661987 326.984619,554.771851 
	C331.130829,554.771851 334.523590,554.771851 338.220947,554.771851 
	C338.220947,551.112488 338.114716,547.792053 338.239502,544.480347 
	C338.759125,530.688110 338.838867,516.852661 340.074799,503.122559 
	C341.045380,492.339935 351.330200,485.477325 363.487244,486.175354 
	C373.932373,486.775085 377.884949,491.304962 378.686493,503.740265 
	C378.879059,506.727875 378.883301,509.730652 378.891205,512.726624 
	C378.923340,524.881836 378.923431,537.037109 378.934692,549.192383 
	C378.936462,551.107361 378.934937,553.022339 378.934937,554.764038 
	C383.124908,554.764038 386.506653,554.764038 389.912476,554.764038 
	C389.912476,535.836853 390.260620,517.363464 389.756256,498.913361 
	C389.526031,490.492188 386.211395,482.933411 377.813416,478.974640 
	C365.559998,473.198395 350.827362,476.201233 341.830658,486.330597 
	C341.027924,487.234375 340.779144,488.630188 340.273102,489.797485 
	C339.642029,489.336853 339.010956,488.876221 338.379883,488.415588 
	C338.379883,474.649780 338.379883,460.883942 338.379883,447.120972 
	C334.318878,447.120972 330.797516,447.120972 326.983063,447.120972 
	C326.983063,460.887329 326.983063,474.193665 326.984619,488.500000 
M429.563110,554.022217 
	C439.489716,558.071777 448.963257,557.301147 458.518646,551.399475 
	C457.190277,548.346680 455.969147,545.540222 454.701508,542.626953 
	C451.947632,543.756836 449.734711,544.936157 447.375824,545.584900 
	C437.889709,548.193665 431.509216,544.317444 431.268433,535.019165 
	C430.859222,519.217407 431.155853,503.397339 431.155853,486.834473 
	C439.399475,486.834473 447.471954,486.834473 455.591980,486.834473 
	C455.591980,483.469360 455.591980,480.865082 455.591980,477.847046 
	C447.381439,477.847046 439.428894,477.847046 430.949768,477.847046 
	C430.949768,471.679260 430.949768,465.906586 430.949768,459.510468 
	C428.430389,459.894012 426.523376,460.376617 424.603027,460.437714 
	C420.269684,460.575562 418.922089,462.753235 419.313721,466.882568 
	C419.637817,470.299713 419.379974,473.772003 419.379974,477.844421 
	C414.646240,477.844421 410.571747,477.844421 406.325226,477.844421 
	C406.325226,481.209595 406.325226,483.929901 406.325226,487.126587 
	C410.773743,487.126587 414.871521,487.126587 419.440704,487.126587 
	C419.440704,489.562408 419.428467,491.519257 419.442627,493.475922 
	C419.548645,508.135529 419.497284,522.799011 419.841583,537.453064 
	C420.001495,544.258423 422.554108,550.133850 429.563110,554.022217 
M660.470093,477.674286 
	C659.137756,477.661194 657.805359,477.655304 656.473145,477.633698 
	C650.019592,477.528992 650.021240,477.527527 650.023010,484.124664 
	C650.028625,505.776459 650.033020,527.428284 650.037781,549.080078 
	C650.038147,550.865845 650.037842,552.651672 650.037842,554.784729 
	C656.780579,554.784729 662.981018,554.784729 669.539307,554.784729 
	C669.539307,529.034668 669.539307,503.640106 669.539307,477.676819 
	C666.635010,477.676819 664.023376,477.676819 660.470093,477.674286 
M221.024200,508.500000 
	C221.024200,498.406158 221.024200,488.312317 221.024200,478.036316 
	C216.929291,478.036316 213.514496,478.036316 209.706146,478.036316 
	C209.706146,503.840912 209.706146,529.330505 209.706146,555.071960 
	C213.520935,555.071960 216.935196,555.071960 221.023117,555.071960 
	C221.023117,539.702393 221.023117,524.601196 221.024200,508.500000 
M670.677490,461.912079 
	C673.144714,455.300659 671.390442,450.099609 665.688721,447.121643 
	C659.924255,444.110901 653.095154,445.723328 649.771301,450.879944 
	C646.392639,456.121582 647.771423,462.773315 652.965210,466.288696 
	C658.973206,470.355133 665.616943,468.929077 670.677490,461.912079 
M218.289948,447.162140 
	C211.926178,446.109039 207.693756,448.631866 207.123459,453.818237 
	C206.621216,458.385651 209.916962,462.430176 214.573105,462.723511 
	C218.432236,462.966614 221.541489,461.529053 222.827667,457.666809 
	C224.269623,453.336792 223.040726,449.804871 218.289948,447.162140 
z"/>
<path fill="#4B7233" opacity="1.000000" stroke="none" 
	d="
M707.792969,476.821106 
	C723.704346,456.562653 744.678406,444.074921 769.118347,436.949249 
	C811.081604,424.714508 852.488098,428.567291 893.516418,441.506226 
	C901.199707,443.929260 902.009766,447.036469 896.246460,452.188934 
	C878.463623,468.087128 867.706116,488.774292 856.320740,509.151459 
	C848.784119,522.640259 840.986145,536.089905 832.059021,548.672974 
	C812.354492,576.447083 784.763550,587.152893 751.407349,582.473450 
	C739.938477,580.864502 728.730103,577.316040 717.456177,574.443848 
	C713.472717,573.429016 709.648376,571.789368 705.245056,570.259033 
	C706.862061,565.325928 708.348816,560.789978 710.087280,555.654663 
	C710.596313,554.147278 710.853760,553.239258 711.343384,552.053345 
	C719.553284,534.663208 727.832581,517.735596 741.080444,504.255646 
	C741.190796,521.318420 741.190796,537.909058 741.190796,554.819458 
	C748.086853,554.819458 754.306885,554.819458 760.793945,554.819458 
	C760.916199,553.810120 761.095276,553.018494 761.095581,552.226746 
	C761.102478,536.419678 761.389526,520.603821 760.923218,504.810211 
	C760.750122,498.946350 758.801270,493.134918 757.961182,487.074646 
	C782.835754,466.816498 811.499878,457.035278 842.596863,453.048065 
	C829.253906,453.783386 815.989685,454.766663 802.851990,456.638458 
	C782.542114,459.532166 763.761841,466.962708 745.700195,477.285828 
	C740.014893,476.960205 734.701355,476.106506 729.525024,476.624420 
	C721.746704,477.402618 716.047607,482.168060 711.363220,488.628418 
	C710.806702,486.123566 711.193909,483.818726 710.687866,481.730286 
	C710.259949,479.963745 708.797546,478.447876 707.792969,476.821106 
z"/>
<path fill="#F49916" opacity="1.000000" stroke="none" 
	d="
M474.669495,514.000000 
	C474.670898,493.351379 474.670898,473.202850 474.670898,453.233887 
	C475.718506,452.806427 476.171448,452.457031 476.620300,452.462250 
	C491.941864,452.639771 507.305054,452.213348 522.573669,453.218903 
	C541.616089,454.472961 552.207642,470.163086 547.090088,488.005066 
	C545.158325,494.739990 540.426086,498.967957 534.596008,502.237640 
	C532.884216,503.197662 531.090820,504.012085 528.531494,505.296356 
	C538.738403,510.688843 541.353333,520.276794 544.471008,529.549561 
	C547.220947,537.728760 549.947083,545.915955 552.913513,554.786865 
	C546.379883,555.089233 540.471008,555.554993 534.569641,555.474609 
	C533.379456,555.458496 531.619690,553.581604 531.139648,552.207397 
	C528.066956,543.411255 525.312683,534.504456 522.387573,525.655945 
	C518.736938,514.612732 515.481812,512.346741 503.757507,512.478394 
	C501.114838,512.508057 498.471558,512.482788 495.115906,512.482788 
	C495.115906,526.802979 495.115906,540.701477 495.115906,555.001221 
	C488.162231,555.001221 481.922272,555.001221 474.668091,555.001221 
	C474.668091,541.377197 474.668091,527.938599 474.669495,514.000000 
M527.925903,479.060852 
	C527.148071,473.385925 523.810486,469.685699 518.271912,469.286163 
	C510.736176,468.742554 503.131744,469.150696 495.526367,469.150696 
	C495.526367,478.342041 495.526367,487.158447 495.526367,496.179352 
	C501.606201,496.179352 507.239044,496.280609 512.867065,496.158447 
	C524.921265,495.896790 528.490906,492.017303 527.925903,479.060852 
z"/>
<path fill="#4F7D36" opacity="1.000000" stroke="none" 
	d="
M249.406509,543.467285 
	C245.375259,534.351440 246.809631,531.570312 258.737823,524.658997 
	C245.315018,511.718903 242.634369,499.848236 249.959015,488.020233 
	C255.716522,478.722900 272.202911,471.307129 291.062836,480.496887 
	C292.338348,477.672150 294.198639,474.970764 294.739960,472.026855 
	C295.588226,467.413696 297.583679,466.096375 301.858734,467.837860 
	C303.215942,468.390717 304.686951,468.664032 306.374847,469.141327 
	C305.537476,476.907990 301.607086,482.233887 295.488708,485.448181 
	C297.729706,490.255493 300.947723,494.622009 301.775604,499.402466 
	C304.432373,514.743286 293.721405,527.365173 277.684326,528.601440 
	C273.709534,528.907776 269.690613,528.591980 265.699860,528.755127 
	C261.752319,528.916321 258.863647,530.719910 258.679749,534.989685 
	C258.489441,539.407349 260.967285,541.780457 265.334869,542.074219 
	C273.478668,542.622131 281.631042,543.045837 289.772186,543.628357 
	C301.664795,544.479431 308.318115,549.531311 309.891968,558.762329 
	C311.724426,569.510193 306.861084,579.289124 296.585144,583.575867 
	C281.988312,589.665222 267.024780,589.496338 252.212997,584.156067 
	C246.863983,582.227539 242.877609,578.414490 240.640793,573.047424 
	C236.728165,563.659302 240.157410,555.235657 249.458450,551.285461 
	C251.091095,550.592041 252.741959,549.941528 255.837021,548.678284 
	C253.221558,546.615234 251.419800,545.193970 249.406509,543.467285 
M280.471008,553.909302 
	C274.339142,553.816345 268.171722,553.269836 262.084534,553.746887 
	C254.705750,554.325317 251.356262,557.685608 250.908737,563.499268 
	C250.450912,569.446716 253.672287,574.075928 260.108276,576.057739 
	C269.220276,578.863586 278.467865,578.800537 287.628967,576.322510 
	C289.966095,575.690369 292.237976,574.392822 294.219635,572.958618 
	C298.378326,569.948792 298.976471,565.548523 297.982025,560.885559 
	C297.069855,556.608215 293.611511,555.294617 289.842621,554.724182 
	C287.060699,554.303101 284.230499,554.200806 280.471008,553.909302 
M290.815948,497.274048 
	C286.879944,486.586090 273.014801,482.149750 263.596619,488.735535 
	C257.287323,493.147339 256.743805,499.742859 257.700562,506.624451 
	C258.573334,512.901917 262.224731,516.704285 268.422577,518.230347 
	C283.541077,521.952942 292.699677,513.817261 290.815948,497.274048 
z"/>
<path fill="#F49916" opacity="1.000000" stroke="none" 
	d="
M607.792114,502.376251 
	C608.356140,494.939972 606.354919,492.568268 599.421448,491.999908 
	C591.543884,491.354065 584.662292,493.804962 578.607666,498.773438 
	C577.206299,499.923431 575.820374,501.092255 573.885010,502.704163 
	C570.974182,498.478302 568.197998,494.447906 564.614807,489.245941 
	C570.166565,485.878723 575.190979,482.098633 580.788330,479.604462 
	C589.670105,475.646851 599.153259,475.187561 608.692200,477.221558 
	C619.875549,479.606171 626.372009,486.909271 626.826233,498.511078 
	C627.249329,509.318512 627.065552,520.150635 627.099976,530.971985 
	C627.126831,539.412720 627.468628,539.816528 636.199707,540.013855 
	C636.525818,543.833740 637.128418,547.749939 637.024292,551.647217 
	C636.994202,552.770752 635.079529,554.545471 633.774719,554.821960 
	C623.690430,556.958496 614.704712,555.932007 609.834839,544.433350 
	C608.579590,545.824402 607.689026,546.696289 606.929993,547.670532 
	C600.065979,556.479980 587.578186,559.197510 576.234619,554.324341 
	C566.906860,550.317139 562.054504,540.762634 563.531006,529.635498 
	C564.670654,521.046753 569.836731,515.688110 577.599548,513.117004 
	C584.991211,510.668915 592.760193,509.380249 600.232544,507.144714 
	C602.912659,506.342865 605.210999,504.264954 607.792114,502.376251 
M589.428650,541.557617 
	C603.867065,543.485962 610.772278,534.703003 608.276306,517.447449 
	C602.510559,518.915833 596.747253,520.357178 590.998901,521.856079 
	C586.631042,522.994934 583.374207,525.384583 582.894897,530.199890 
	C582.411194,535.059265 583.774170,539.132874 589.428650,541.557617 
z"/>
<path fill="#F49916" opacity="1.000000" stroke="none" 
	d="
M711.111206,552.331238 
	C710.853760,553.239258 710.596313,554.147278 710.162231,555.264099 
	C704.288635,555.534363 698.591553,555.595825 692.309631,555.417480 
	C691.565430,551.196167 691.323242,547.216064 691.262268,543.233093 
	C691.076050,531.080383 690.959595,518.926575 690.816040,506.773163 
	C691.037781,498.494904 691.393982,490.216949 691.413940,481.938202 
	C691.421753,478.704102 692.467163,477.559998 695.726562,477.647186 
	C699.480103,477.747589 703.248596,477.288086 707.401794,476.946411 
	C708.797546,478.447876 710.259949,479.963745 710.687866,481.730286 
	C711.193909,483.818726 710.806702,486.123566 711.363220,488.628418 
	C716.047607,482.168060 721.746704,477.402618 729.525024,476.624420 
	C734.701355,476.106506 740.014893,476.960205 745.915405,477.511536 
	C750.263367,480.981903 753.962830,484.140717 757.662292,487.299561 
	C758.801270,493.134918 760.750122,498.946350 760.923218,504.810211 
	C761.389526,520.603821 761.102478,536.419678 761.095581,552.226746 
	C761.095276,553.018494 760.916199,553.810120 760.793945,554.819458 
	C754.306885,554.819458 748.086853,554.819458 741.190796,554.819458 
	C741.190796,537.909058 741.190796,521.318420 741.124146,503.865662 
	C740.749512,495.433777 734.798401,491.259338 726.526672,493.056274 
	C716.445312,494.647034 711.812988,500.387848 711.980835,510.888184 
	C711.651611,513.388184 711.163452,515.504333 711.149353,517.623596 
	C711.072327,529.192383 711.111816,540.761963 711.111206,552.331238 
z"/>
<path fill="#4F7D36" opacity="1.000000" stroke="none" 
	d="
M182.533417,467.571228 
	C187.540695,481.148682 184.860687,493.654419 175.422211,500.451721 
	C172.496445,502.558807 169.034088,503.920746 165.116058,505.995148 
	C166.726730,507.129669 168.462753,507.843109 169.434982,509.132477 
	C172.394897,513.057983 175.946350,516.865051 177.663925,521.334473 
	C181.817200,532.141907 185.061340,543.298767 188.649094,554.245056 
	C187.732681,554.670105 187.451447,554.902344 187.155304,554.923218 
	C176.576614,555.668762 176.590805,555.661377 173.356781,545.671936 
	C170.794144,537.756348 168.182190,529.856689 165.607483,521.944946 
	C162.993256,513.911743 157.649384,509.438568 149.040115,509.345825 
	C142.425064,509.274567 135.808655,509.331635 128.572342,509.331635 
	C128.572342,524.600891 128.572342,539.691711 128.572342,555.033142 
	C124.348885,555.033142 120.745796,555.033142 116.734222,555.033142 
	C116.734222,521.021179 116.734222,487.105255 116.734222,452.948944 
	C117.141205,452.825470 117.754829,452.472565 118.364830,452.478699 
	C132.183197,452.617767 146.016968,452.451263 159.813889,453.083282 
	C169.699219,453.536133 177.733017,457.913239 182.533417,467.571228 
M155.116165,462.969421 
	C146.366623,462.969421 137.617065,462.969421 129.180878,462.969421 
	C129.180878,475.427765 129.180878,487.146790 129.180878,498.203247 
	C139.635544,498.203247 149.599716,498.463074 159.540009,498.088959 
	C164.209320,497.913208 167.969498,495.293579 170.261154,490.932404 
	C177.137344,477.846649 170.522385,464.852905 155.116165,462.969421 
z"/>
<path fill="#4B7233" opacity="1.000000" stroke="none" 
	d="
M326.983826,488.000000 
	C326.983063,474.193665 326.983063,460.887329 326.983063,447.120972 
	C330.797516,447.120972 334.318878,447.120972 338.379883,447.120972 
	C338.379883,460.883942 338.379883,474.649780 338.379883,488.415588 
	C339.010956,488.876221 339.642029,489.336853 340.273102,489.797485 
	C340.779144,488.630188 341.027924,487.234375 341.830658,486.330597 
	C350.827362,476.201233 365.559998,473.198395 377.813416,478.974640 
	C386.211395,482.933411 389.526031,490.492188 389.756256,498.913361 
	C390.260620,517.363464 389.912476,535.836853 389.912476,554.764038 
	C386.506653,554.764038 383.124908,554.764038 378.934937,554.764038 
	C378.934937,553.022339 378.936462,551.107361 378.934692,549.192383 
	C378.923431,537.037109 378.923340,524.881836 378.891205,512.726624 
	C378.883301,509.730652 378.879059,506.727875 378.686493,503.740265 
	C377.884949,491.304962 373.932373,486.775085 363.487244,486.175354 
	C351.330200,485.477325 341.045380,492.339935 340.074799,503.122559 
	C338.838867,516.852661 338.759125,530.688110 338.239502,544.480347 
	C338.114716,547.792053 338.220947,551.112488 338.220947,554.771851 
	C334.523590,554.771851 331.130829,554.771851 326.984619,554.771851 
	C326.984619,532.661987 326.984619,510.580994 326.983826,488.000000 
z"/>
<path fill="#4F7D36" opacity="1.000000" stroke="none" 
	d="
M429.232117,553.854004 
	C422.554108,550.133850 420.001495,544.258423 419.841583,537.453064 
	C419.497284,522.799011 419.548645,508.135529 419.442627,493.475922 
	C419.428467,491.519257 419.440704,489.562408 419.440704,487.126587 
	C414.871521,487.126587 410.773743,487.126587 406.325226,487.126587 
	C406.325226,483.929901 406.325226,481.209595 406.325226,477.844421 
	C410.571747,477.844421 414.646240,477.844421 419.379974,477.844421 
	C419.379974,473.772003 419.637817,470.299713 419.313721,466.882568 
	C418.922089,462.753235 420.269684,460.575562 424.603027,460.437714 
	C426.523376,460.376617 428.430389,459.894012 430.949768,459.510468 
	C430.949768,465.906586 430.949768,471.679260 430.949768,477.847046 
	C439.428894,477.847046 447.381439,477.847046 455.591980,477.847046 
	C455.591980,480.865082 455.591980,483.469360 455.591980,486.834473 
	C447.471954,486.834473 439.399475,486.834473 431.155853,486.834473 
	C431.155853,503.397339 430.859222,519.217407 431.268433,535.019165 
	C431.509216,544.317444 437.889709,548.193665 447.375824,545.584900 
	C449.734711,544.936157 451.947632,543.756836 454.701508,542.626953 
	C455.969147,545.540222 457.190277,548.346680 458.518646,551.399475 
	C448.963257,557.301147 439.489716,558.071777 429.232117,553.854004 
z"/>
<path fill="#F49916" opacity="1.000000" stroke="none" 
	d="
M660.940918,477.675537 
	C664.023376,477.676819 666.635010,477.676819 669.539307,477.676819 
	C669.539307,503.640106 669.539307,529.034668 669.539307,554.784729 
	C662.981018,554.784729 656.780579,554.784729 650.037842,554.784729 
	C650.037842,552.651672 650.038147,550.865845 650.037781,549.080078 
	C650.033020,527.428284 650.028625,505.776459 650.023010,484.124664 
	C650.021240,477.527527 650.019592,477.528992 656.473145,477.633698 
	C657.805359,477.655304 659.137756,477.661194 660.940918,477.675537 
z"/>
<path fill="#4F7D36" opacity="1.000000" stroke="none" 
	d="
M221.023651,509.000000 
	C221.023117,524.601196 221.023117,539.702393 221.023117,555.071960 
	C216.935196,555.071960 213.520935,555.071960 209.706146,555.071960 
	C209.706146,529.330505 209.706146,503.840912 209.706146,478.036316 
	C213.514496,478.036316 216.929291,478.036316 221.024200,478.036316 
	C221.024200,488.312317 221.024200,498.406158 221.023651,509.000000 
z"/>
<path fill="#4F7D36" opacity="1.000000" stroke="none" 
	d="
M690.601929,507.058594 
	C690.959595,518.926575 691.076050,531.080383 691.262268,543.233093 
	C691.323242,547.216064 691.565430,551.196167 691.918457,555.534180 
	C689.675110,571.380493 687.238098,586.870178 684.841370,602.103882 
	C677.714783,590.645935 680.746826,536.911621 690.601929,507.058594 
z"/>
<path fill="#F49916" opacity="1.000000" stroke="none" 
	d="
M670.482849,462.241211 
	C665.616943,468.929077 658.973206,470.355133 652.965210,466.288696 
	C647.771423,462.773315 646.392639,456.121582 649.771301,450.879944 
	C653.095154,445.723328 659.924255,444.110901 665.688721,447.121643 
	C671.390442,450.099609 673.144714,455.300659 670.482849,462.241211 
z"/>
<path fill="#4F7D36" opacity="1.000000" stroke="none" 
	d="
M218.628967,447.307678 
	C223.040726,449.804871 224.269623,453.336792 222.827667,457.666809 
	C221.541489,461.529053 218.432236,462.966614 214.573105,462.723511 
	C209.916962,462.430176 206.621216,458.385651 207.123459,453.818237 
	C207.693756,448.631866 211.926178,446.109039 218.628967,447.307678 
z"/>
<path fill="#FAFCFA" opacity="1.000000" stroke="none" 
	d="
M726.912292,493.081360 
	C734.798401,491.259338 740.749512,495.433777 741.013794,503.393524 
	C727.832581,517.735596 719.553284,534.663208 711.343384,552.053345 
	C711.111816,540.761963 711.072327,529.192383 711.149353,517.623596 
	C711.163452,515.504333 711.651611,513.388184 712.260864,510.661804 
	C717.371277,504.395752 722.141785,498.738556 726.912292,493.081360 
z"/>
<path fill="#FAFCFA" opacity="1.000000" stroke="none" 
	d="
M757.961182,487.074646 
	C753.962830,484.140717 750.263367,480.981903 746.348633,477.597382 
	C763.761841,466.962708 782.542114,459.532166 802.851990,456.638458 
	C815.989685,454.766663 829.253906,453.783386 842.596863,453.048065 
	C811.499878,457.035278 782.835754,466.816498 757.961182,487.074646 
z"/>
<path fill="#FAFCFA" opacity="1.000000" stroke="none" 
	d="
M527.974792,479.486877 
	C528.490906,492.017303 524.921265,495.896790 512.867065,496.158447 
	C507.239044,496.280609 501.606201,496.179352 495.526367,496.179352 
	C495.526367,487.158447 495.526367,478.342041 495.526367,469.150696 
	C503.131744,469.150696 510.736176,468.742554 518.271912,469.286163 
	C523.810486,469.685699 527.148071,473.385925 527.974792,479.486877 
z"/>
<path fill="#FAFCFA" opacity="1.000000" stroke="none" 
	d="
M280.946411,553.932861 
	C284.230499,554.200806 287.060699,554.303101 289.842621,554.724182 
	C293.611511,555.294617 297.069855,556.608215 297.982025,560.885559 
	C298.976471,565.548523 298.378326,569.948792 294.219635,572.958618 
	C292.237976,574.392822 289.966095,575.690369 287.628967,576.322510 
	C278.467865,578.800537 269.220276,578.863586 260.108276,576.057739 
	C253.672287,574.075928 250.450912,569.446716 250.908737,563.499268 
	C251.356262,557.685608 254.705750,554.325317 262.084534,553.746887 
	C268.171722,553.269836 274.339142,553.816345 280.946411,553.932861 
z"/>
<path fill="#FAFCFA" opacity="1.000000" stroke="none" 
	d="
M290.885193,497.697968 
	C292.699677,513.817261 283.541077,521.952942 268.422577,518.230347 
	C262.224731,516.704285 258.573334,512.901917 257.700562,506.624451 
	C256.743805,499.742859 257.287323,493.147339 263.596619,488.735535 
	C273.014801,482.149750 286.879944,486.586090 290.885193,497.697968 
z"/>
<path fill="#FAFCFA" opacity="1.000000" stroke="none" 
	d="
M589.047485,541.417236 
	C583.774170,539.132874 582.411194,535.059265 582.894897,530.199890 
	C583.374207,525.384583 586.631042,522.994934 590.998901,521.856079 
	C596.747253,520.357178 602.510559,518.915833 608.276306,517.447449 
	C610.772278,534.703003 603.867065,543.485962 589.047485,541.417236 
z"/>
<path fill="#4F7D36" opacity="1.000000" stroke="none" 
	d="
M726.526672,493.056274 
	C722.141785,498.738556 717.371277,504.395752 712.320679,510.279358 
	C711.812988,500.387848 716.445312,494.647034 726.526672,493.056274 
z"/>
<path fill="#FAFCFA" opacity="1.000000" stroke="none" 
	d="
M155.570496,463.000977 
	C170.522385,464.852905 177.137344,477.846649 170.261154,490.932404 
	C167.969498,495.293579 164.209320,497.913208 159.540009,498.088959 
	C149.599716,498.463074 139.635544,498.203247 129.180878,498.203247 
	C129.180878,487.146790 129.180878,475.427765 129.180878,462.969421 
	C137.617065,462.969421 146.366623,462.969421 155.570496,463.000977 
z"/>
</svg>